<?xml version="1.0" standalone="no"?>
<!DOCTYPE svg PUBLIC "-//W3C//DTD SVG 20010904//EN"
 "http://www.w3.org/TR/2001/REC-SVG-20010904/DTD/svg10.dtd">
<svg version="1.0" xmlns="http://www.w3.org/2000/svg"
 width="900.000000pt" height="800.000000pt" viewBox="0 0 900.000000 800.000000"
 preserveAspectRatio="xMidYMid meet">
<metadata>
Created by potrace 1.16, written by Peter Selinger 2001-2019
</metadata>
<g transform="translate(0.000000,800.000000) scale(0.100000,-0.100000)"
fill="#000000" stroke="none">
<path d="M5615 7821 l20 -8 -20 -5 c-18 -5 -18 -6 3 -7 12 0 25 -1 28 0 4 0
10 -4 13 -9 3 -5 34 -22 68 -37 35 -15 68 -34 74 -41 6 -8 20 -14 31 -14 11 0
16 -4 12 -11 -4 -8 0 -8 15 0 17 9 20 9 15 -3 -4 -10 10 -23 43 -41 26 -14 68
-41 93 -60 25 -19 57 -40 72 -46 16 -6 25 -15 22 -20 -3 -5 8 -14 25 -20 17
-6 31 -17 31 -25 0 -8 5 -14 11 -14 12 0 56 -33 99 -74 14 -13 45 -37 70 -54
25 -17 62 -46 83 -66 20 -20 42 -36 47 -36 6 0 10 -7 10 -15 0 -8 4 -15 10
-15 18 0 231 -222 226 -236 -3 -8 0 -11 8 -8 7 3 18 -7 26 -20 7 -14 22 -28
33 -32 12 -4 17 -12 14 -25 -3 -10 -1 -17 4 -13 5 3 13 -6 18 -19 5 -13 17
-27 26 -31 9 -3 14 -10 11 -14 -3 -5 11 -24 30 -42 20 -18 46 -50 59 -69 21
-35 51 -73 88 -112 9 -10 17 -25 17 -33 0 -7 6 -19 14 -25 18 -15 82 -125 121
-206 16 -33 34 -67 40 -75 7 -8 18 -31 25 -50 7 -19 21 -46 30 -60 9 -14 24
-45 34 -70 10 -25 26 -63 36 -85 21 -44 99 -245 123 -315 9 -25 29 -103 46
-175 17 -71 37 -150 45 -175 14 -45 26 -154 32 -285 1 -38 7 -86 13 -105 29
-92 2 -801 -28 -752 -4 6 -8 -15 -9 -48 -1 -33 -7 -81 -13 -107 -6 -27 -14
-66 -19 -88 -11 -54 -44 -162 -64 -207 -9 -21 -13 -38 -10 -38 3 0 0 -10 -8
-22 -8 -13 -20 -43 -27 -68 -7 -25 -17 -53 -22 -62 -5 -10 -9 -23 -9 -29 0
-20 -211 -438 -244 -482 -17 -23 -40 -58 -50 -77 -11 -19 -25 -40 -30 -46 -6
-7 -20 -24 -31 -40 -21 -30 -111 -140 -173 -212 -20 -24 -38 -48 -40 -53 -2
-5 -10 -9 -18 -9 -8 0 -14 -6 -14 -12 -1 -7 -23 -31 -50 -52 -28 -22 -50 -43
-50 -48 0 -4 -4 -8 -9 -8 -4 0 -30 -21 -57 -47 -82 -80 -175 -152 -294 -228
-69 -44 -64 -41 -166 -103 -87 -52 -255 -127 -389 -173 -55 -19 -102 -36 -105
-39 -7 -8 -255 -67 -330 -79 -199 -32 -504 -41 -675 -21 -96 12 -264 43 -330
62 -184 53 -441 158 -530 217 -22 15 -56 34 -76 44 -20 9 -42 23 -49 32 -7 8
-17 15 -23 15 -6 0 -17 7 -26 16 -9 8 -39 32 -68 52 -92 66 -146 115 -248 225
-55 59 -104 113 -110 120 -123 154 -256 385 -310 537 -119 339 -147 603 -98
925 17 116 53 257 77 303 9 17 16 38 16 46 0 8 9 31 19 53 11 21 31 63 44 93
14 30 37 72 51 93 14 21 26 42 26 47 0 5 6 13 13 17 6 4 18 20 25 34 8 15 24
37 36 50 12 13 28 33 36 45 56 79 235 249 297 282 12 7 27 18 35 24 25 24 150
89 283 148 33 15 118 42 155 50 19 4 71 15 115 25 100 22 391 16 495 -10 299
-73 527 -216 697 -435 141 -181 214 -399 214 -635 1 -186 -57 -381 -147 -502
-13 -17 -24 -35 -24 -38 0 -26 -191 -205 -219 -205 -6 0 -11 -4 -11 -9 0 -16
-188 -92 -266 -106 -146 -28 -309 -10 -437 49 -221 102 -367 335 -354 566 10
179 104 330 253 405 78 40 79 40 194 40 106 0 119 -2 167 -27 231 -122 253
-440 38 -539 -47 -22 -132 -25 -178 -5 -76 31 -125 118 -112 196 8 47 65 107
109 116 48 8 105 -18 119 -56 6 -16 15 -30 19 -30 12 0 -17 52 -41 74 -11 10
-39 20 -63 23 -35 4 -51 -1 -85 -23 -106 -70 -96 -226 20 -301 37 -25 51 -28
124 -28 79 0 83 1 140 41 45 32 65 55 91 105 31 60 33 69 30 149 -4 97 -27
153 -87 219 -53 57 -98 87 -171 111 -55 19 -79 21 -157 17 -124 -7 -216 -50
-306 -142 -109 -111 -150 -217 -150 -385 0 -98 4 -126 26 -188 36 -104 82
-177 158 -253 247 -247 633 -283 959 -90 36 22 72 47 80 55 7 9 18 16 24 17
16 1 141 144 187 214 113 172 169 383 158 600 -6 133 -17 189 -61 315 -57 164
-140 298 -266 428 -190 196 -382 303 -665 373 -166 40 -477 36 -650 -10 -138
-36 -206 -61 -317 -117 -107 -53 -135 -70 -143 -81 -4 -7 -13 -13 -19 -13 -6
0 -36 -19 -67 -42 -31 -23 -62 -47 -70 -53 -7 -5 -49 -44 -93 -85 -146 -137
-283 -316 -336 -440 -14 -30 -27 -57 -31 -60 -4 -3 -15 -23 -25 -45 -10 -22
-24 -53 -31 -70 -22 -48 -55 -159 -55 -184 0 -12 -4 -19 -10 -16 -6 4 -10 -7
-10 -25 0 -21 -4 -29 -12 -24 -7 4 -8 3 -4 -5 4 -6 1 -49 -8 -94 -22 -116 -38
-283 -31 -310 5 -18 4 -19 -5 -7 -9 12 -10 6 -5 -25 7 -37 10 -83 19 -246 2
-37 6 -71 10 -77 8 -13 20 -86 21 -124 0 -14 3 -24 7 -22 3 2 11 -10 17 -26 6
-19 6 -28 1 -25 -6 4 -5 -6 1 -22 17 -41 24 -61 47 -128 11 -33 26 -76 33 -95
12 -33 107 -229 132 -273 28 -49 141 -212 149 -215 4 -2 8 -10 8 -17 0 -7 3
-15 8 -17 4 -1 29 -30 56 -63 28 -33 68 -78 90 -101 23 -22 48 -49 57 -60 9
-10 38 -37 64 -59 26 -22 62 -52 79 -67 55 -47 165 -128 174 -128 5 0 15 -7
22 -15 7 -9 38 -27 68 -41 37 -17 52 -28 43 -33 -8 -5 12 -15 53 -27 47 -13
61 -21 48 -26 -15 -6 -15 -7 3 -7 11 -1 29 -7 40 -15 11 -7 33 -16 49 -20 20
-5 26 -10 17 -15 -8 -5 -1 -10 21 -14 18 -3 47 -11 63 -18 68 -28 131 -48 155
-50 20 -1 17 -3 -10 -8 -31 -6 -27 -8 35 -14 40 -5 83 -16 101 -28 18 -11 36
-19 41 -18 4 1 35 0 68 -1 45 -1 54 -4 35 -10 -19 -5 -7 -9 50 -15 53 -6 68
-10 50 -15 -14 -4 8 -7 50 -7 41 0 131 -6 199 -12 68 -7 143 -11 165 -7 31 4
36 3 21 -5 -15 -7 -12 -8 15 -3 19 3 90 8 158 11 68 2 147 11 175 18 36 9 56
10 64 3 9 -7 17 -7 26 0 7 6 40 14 73 18 32 4 74 13 92 20 19 8 62 19 97 25
35 6 69 17 76 25 7 9 21 12 38 8 21 -5 23 -3 11 6 -12 9 -11 10 7 5 14 -4 43
5 83 26 33 17 64 29 67 25 4 -3 0 -6 -7 -6 -7 0 -11 -2 -8 -5 10 -10 59 18 54
31 -3 8 0 11 9 8 7 -3 28 3 47 12 18 10 39 17 47 15 8 -1 10 2 6 9 -5 9 -1 10
15 5 19 -6 22 -4 17 9 -4 10 -3 14 3 11 8 -5 46 11 60 25 3 3 16 14 29 25 l24
20 -12 -23 c-12 -23 -12 -23 28 3 23 15 45 24 52 19 8 -4 9 -3 5 5 -11 18 14
42 35 36 15 -5 17 -3 12 12 -6 15 -4 16 8 6 12 -9 23 -4 59 28 25 21 56 42 70
46 14 3 31 12 38 20 8 7 18 11 23 8 5 -4 6 0 3 8 -3 10 8 19 34 30 21 8 49 29
63 46 17 22 30 29 44 25 16 -4 17 -3 5 5 -8 6 -13 11 -10 12 3 0 14 2 25 4 11
2 24 10 30 18 5 8 25 31 43 52 27 30 36 35 44 24 7 -10 7 -7 3 9 -5 17 -3 22
8 20 16 -3 50 29 80 75 9 14 23 24 30 22 6 -3 23 11 37 29 14 19 29 32 34 28
5 -3 6 0 2 6 -8 13 43 82 59 82 6 0 19 16 30 35 11 22 24 34 32 30 10 -3 13 1
8 14 -3 11 -1 22 5 26 5 3 10 1 10 -5 0 -6 5 -8 10 -5 6 3 10 14 10 24 0 9 11
27 25 39 13 12 27 33 31 47 3 14 10 25 15 25 11 0 11 -3 -1 -35 -7 -17 -7 -24
0 -20 6 3 10 12 10 18 0 22 109 233 110 212 1 -24 50 71 50 98 0 9 5 17 10 17
6 0 10 -8 11 -17 0 -14 2 -15 6 -3 3 8 11 29 18 45 7 17 21 55 31 85 16 49 18
52 24 30 l7 -25 7 30 c4 17 11 39 16 50 4 11 16 49 25 85 23 88 26 92 21 40
-6 -63 8 -33 32 69 23 94 33 114 25 49 -11 -81 7 -31 36 103 16 74 30 119 30
100 2 -62 9 -28 22 99 12 120 13 123 23 80 10 -45 10 -45 18 45 9 107 15 135
17 80 1 -30 4 -36 11 -25 5 8 10 71 11 140 1 84 4 111 8 83 15 -88 22 -53 16
77 -4 87 -3 131 4 125 5 -5 12 -21 15 -35 3 -14 3 21 0 77 -2 62 0 104 6 108
6 4 10 -9 11 -32 1 -21 5 -49 10 -63 9 -27 9 -30 -11 145 -6 50 -13 101 -15
115 -2 14 -2 19 1 13 12 -27 26 -12 20 20 -4 17 -11 57 -16 87 -4 30 -11 69
-15 85 l-6 30 15 -25 c22 -35 20 -10 -5 90 -16 68 -18 88 -9 106 7 12 9 27 6
33 -4 6 -20 53 -35 106 -24 79 -26 95 -14 95 9 0 13 -6 10 -14 -6 -15 13 -66
25 -66 6 0 -7 50 -22 80 -4 9 -11 35 -15 58 -4 23 -11 42 -16 42 -5 0 -9 7 -9
15 0 26 17 16 28 -17 l11 -33 -5 34 c-4 18 -20 63 -36 100 -46 103 -47 104
-58 136 -11 31 -3 25 27 -22 19 -31 9 7 -20 71 -15 32 -27 60 -27 62 0 3 -10
21 -23 42 -13 20 -27 46 -30 57 -7 20 -7 20 8 1 43 -56 10 40 -43 124 -28 44
-28 59 -1 34 l22 -19 -13 25 c-7 14 -31 56 -53 93 -43 73 -45 103 -3 40 14
-20 26 -33 26 -27 0 6 -34 61 -75 123 -48 71 -68 108 -55 101 12 -6 26 -22 32
-36 10 -21 28 -33 28 -19 0 7 -141 196 -162 217 -10 10 -18 22 -18 26 0 5 -9
18 -20 30 -12 12 -17 22 -13 22 4 0 23 -18 42 -40 19 -22 39 -40 45 -40 8 0 8
3 0 8 -27 19 -125 153 -119 162 4 6 -1 20 -11 31 -9 10 -13 19 -8 19 5 0 -2 7
-14 16 -12 8 -20 19 -17 24 3 4 -2 10 -10 14 -8 3 -12 11 -9 19 2 7 -5 22 -17
33 -13 10 -19 13 -15 7 9 -16 1 -16 -25 -3 -10 6 -19 18 -19 27 0 13 3 14 12
5 7 -7 16 -12 21 -12 5 0 -12 20 -39 45 -26 25 -54 43 -61 40 -9 -3 -11 0 -7
6 3 6 -8 24 -27 40 -27 23 -36 26 -49 16 -13 -10 -13 -10 -2 4 11 15 4 23 -53
68 -35 28 -69 51 -74 51 -5 0 -11 6 -14 13 -6 16 -269 195 -397 269 -153 89
-487 250 -544 263 -6 1 -24 8 -41 15 -106 44 -166 56 -150 29 3 -5 -1 -6 -10
-2 -13 4 -14 8 -4 14 18 11 13 14 -53 33 -58 17 -88 20 -53 7z"/>
<path d="M3715 7539 c-27 -4 -61 -11 -75 -14 -20 -4 -22 -3 -10 6 11 8 0 9
-45 3 -33 -5 -84 -8 -114 -7 -38 1 -50 -2 -40 -8 10 -7 6 -8 -12 -4 -14 4 -52
-1 -85 -9 -33 -8 -68 -13 -79 -10 -11 2 -58 -7 -105 -21 -47 -14 -86 -21 -88
-16 -3 8 -88 -17 -187 -55 -18 -7 -18 -6 -6 9 9 12 -18 4 -83 -23 -54 -22
-101 -38 -105 -35 -10 6 -96 -28 -158 -62 -43 -23 -70 -31 -43 -12 24 17 -30
0 -65 -21 -105 -60 -127 -71 -121 -61 15 24 -19 9 -100 -44 -58 -38 -84 -50
-84 -39 0 8 4 13 9 10 5 -3 15 2 22 12 12 15 12 16 -2 5 -9 -7 -19 -10 -22 -6
-4 3 -9 -2 -13 -11 -3 -9 -10 -16 -15 -16 -4 0 -41 -25 -81 -55 -40 -30 -77
-55 -83 -55 -7 0 -7 3 0 8 6 4 17 16 25 27 10 13 2 10 -22 -9 -21 -16 -35 -33
-31 -39 3 -6 1 -7 -6 -3 -18 12 -258 -224 -398 -391 -752 -900 -1064 -2074
-857 -3223 100 -551 333 -1105 658 -1560 93 -131 200 -263 273 -337 36 -38 65
-69 64 -71 -4 -6 47 -42 59 -42 6 0 8 -6 4 -12 -4 -7 -4 -10 0 -6 5 4 17 -2
29 -12 11 -11 22 -18 25 -16 2 3 -19 28 -47 56 -28 28 -51 56 -51 61 0 5 -4 9
-9 9 -5 0 -12 8 -15 18 -4 11 -18 25 -31 32 -14 7 -25 18 -25 23 0 5 6 4 13
-2 13 -10 27 -6 27 9 0 4 -8 16 -17 28 -10 11 -25 29 -33 39 -9 10 -14 25 -12
34 1 9 -4 22 -13 29 -10 8 -15 9 -15 1 0 -6 5 -11 11 -11 5 0 7 -5 3 -11 -4
-8 -12 -2 -21 15 -7 14 -18 26 -23 26 -6 0 -6 10 0 25 8 20 6 27 -5 31 -8 4
-12 10 -9 15 7 13 -15 51 -27 44 -5 -4 -9 -1 -9 6 0 7 -7 21 -17 31 -15 17
-15 18 3 18 17 0 16 2 -4 16 -12 8 -22 24 -22 36 0 21 -36 93 -58 117 -8 8
-12 26 -9 39 3 16 -4 39 -18 63 -24 38 -55 105 -55 120 0 5 8 6 18 3 15 -5 15
-4 2 8 -21 19 -40 55 -40 75 0 10 -8 32 -18 48 -20 33 -41 102 -22 75 5 -8 10
-12 10 -8 0 11 -30 100 -42 125 -6 12 -8 34 -5 49 3 15 1 35 -4 43 -12 24 -46
131 -53 171 l-6 35 14 -30 14 -30 -5 40 c-3 22 -14 60 -23 85 -10 25 -18 68
-19 95 -4 198 -12 329 -22 341 -6 7 -7 19 -3 25 5 9 9 7 15 -7 3 -10 6 18 6
64 0 51 -4 78 -9 70 -6 -9 -8 -7 -4 7 9 31 28 294 26 353 -1 41 2 52 14 52 13
0 16 15 16 91 0 64 4 94 14 104 8 8 17 48 21 95 7 74 17 99 28 68 2 -7 8 23
12 67 5 59 13 90 31 117 13 21 24 49 24 62 0 14 5 37 12 53 6 15 10 36 9 47
-2 10 2 15 7 12 5 -3 18 21 28 54 11 33 22 60 27 60 4 0 7 5 7 11 0 6 6 17 14
24 7 8 16 33 20 57 5 33 9 39 17 28 9 -13 10 -12 5 2 -5 18 23 78 37 78 4 0 7
9 7 20 0 11 5 20 10 20 6 0 10 11 10 24 0 14 7 31 15 40 8 8 15 19 15 25 0 6
5 11 10 11 11 0 52 85 53 108 0 7 6 11 12 8 7 -2 12 3 11 12 0 9 5 16 11 15 7
-2 15 8 19 22 3 14 10 25 15 25 5 0 9 6 9 13 0 6 12 30 26 52 14 22 23 31 20
20 -5 -17 -3 -16 14 5 11 14 20 31 20 38 0 6 5 12 10 12 6 0 10 8 10 18 1 17
33 62 45 62 12 0 34 27 28 34 -4 3 -1 6 5 6 6 0 19 14 27 31 19 35 51 70 59
62 3 -3 11 6 17 21 7 14 18 26 25 26 7 0 15 8 18 18 3 10 33 44 66 75 33 32
60 62 60 68 0 5 18 16 40 25 22 9 40 22 40 30 0 8 7 14 15 14 8 0 15 5 15 11
0 12 40 48 53 49 5 0 22 12 38 28 16 15 31 26 34 24 3 -1 19 10 35 25 15 15
40 37 55 48 14 11 36 30 47 43 15 15 24 18 29 11 5 -9 10 -9 20 -1 67 55 136
100 192 124 15 7 27 16 27 20 0 4 7 8 15 8 8 0 15 5 15 10 0 6 11 10 25 10 14
0 25 5 25 11 0 5 4 8 9 4 5 -3 16 2 25 11 9 8 26 16 38 17 13 0 25 4 28 7 13
15 111 60 162 74 31 9 58 21 60 27 2 5 19 11 38 11 19 0 40 4 45 8 14 11 193
62 228 65 15 1 43 3 63 4 19 0 33 5 30 10 -8 13 48 22 224 36 110 9 519 12
514 4 -3 -6 44 -13 206 -28 41 -4 62 -9 45 -11 -28 -3 -28 -3 -5 -7 14 -2 59
-11 100 -20 41 -8 95 -19 120 -24 64 -13 81 -19 75 -28 -2 -5 13 -11 35 -14
21 -3 53 -12 71 -21 18 -9 39 -16 46 -16 8 0 28 -9 44 -21 16 -11 33 -17 39
-14 5 3 25 -5 43 -19 19 -15 41 -26 50 -26 10 0 17 -4 17 -8 0 -11 45 -32 68
-32 10 0 24 -9 32 -20 8 -11 23 -20 33 -20 10 0 29 -11 43 -25 14 -14 44 -35
67 -46 23 -12 58 -36 78 -53 74 -63 94 -79 119 -94 47 -30 170 -144 170 -158
0 -8 5 -14 10 -14 14 0 70 -55 70 -68 0 -7 11 -19 25 -28 14 -9 25 -21 25 -28
0 -6 17 -29 38 -51 21 -22 47 -56 58 -75 10 -19 25 -39 32 -44 8 -4 20 -23 28
-42 8 -19 19 -34 24 -34 6 0 10 -5 10 -11 0 -7 18 -40 40 -75 22 -35 40 -71
40 -79 0 -9 9 -25 20 -37 11 -12 20 -30 20 -40 0 -10 8 -30 17 -45 9 -14 18
-34 18 -45 1 -11 6 -23 12 -26 6 -4 13 -18 17 -32 4 -14 11 -34 16 -45 13 -27
50 -169 60 -227 5 -27 11 -52 14 -57 11 -17 36 -259 36 -347 0 -162 -41 -484
-62 -484 -5 0 -8 -15 -8 -34 0 -18 -7 -51 -16 -72 -9 -22 -19 -52 -21 -68 -4
-25 -61 -148 -140 -301 -38 -73 -162 -239 -240 -322 -74 -79 -210 -193 -230
-193 -6 0 -16 -6 -20 -14 -7 -11 -48 -41 -112 -81 -9 -5 -18 -12 -21 -16 -8
-8 -77 -39 -88 -39 -6 0 -17 -6 -24 -12 -21 -21 -57 -35 -173 -72 -175 -54
-249 -67 -412 -73 -152 -6 -232 1 -373 33 -108 24 -155 41 -309 110 -230 105
-458 336 -572 581 -44 93 -45 95 -74 204 -87 329 1 709 218 944 26 28 47 53
47 58 0 4 7 7 15 7 7 0 18 6 22 13 11 18 119 97 133 97 5 0 10 5 10 10 0 6 6
10 13 10 8 0 40 13 73 29 127 61 337 86 479 57 336 -71 564 -335 565 -654 0
-146 -53 -275 -155 -377 -110 -110 -212 -151 -363 -143 -114 5 -182 36 -262
117 -128 131 -138 329 -23 447 111 114 275 114 367 0 31 -38 46 -117 32 -170
-8 -32 -57 -83 -91 -96 -86 -33 -177 27 -174 112 0 14 6 5 15 -24 42 -135 217
-102 241 46 9 58 -35 136 -96 169 -155 85 -341 -41 -341 -231 0 -90 22 -151
77 -212 74 -82 160 -120 273 -120 128 0 214 37 307 131 154 155 182 401 70
616 -31 60 -132 172 -192 213 -48 33 -150 77 -222 96 -65 17 -240 19 -313 4
-245 -51 -452 -218 -572 -463 -31 -63 -51 -129 -75 -242 -32 -152 6 -424 79
-565 15 -30 28 -58 28 -62 0 -10 71 -120 85 -133 7 -5 23 -26 36 -45 33 -48
136 -147 203 -195 31 -22 63 -46 71 -53 8 -7 29 -20 47 -28 18 -8 47 -23 63
-32 52 -28 178 -74 226 -82 26 -5 55 -13 65 -18 36 -19 160 -27 329 -21 176 7
195 10 404 78 89 29 289 132 311 160 3 4 19 16 36 26 100 62 279 243 339 340
11 18 41 64 66 102 45 68 76 129 119 233 12 30 28 64 35 75 11 18 25 67 30
105 5 40 17 98 26 120 37 102 40 516 4 675 -2 11 -9 45 -16 75 -10 50 -36 134
-70 230 -7 19 -30 72 -51 118 -21 45 -38 87 -38 92 0 6 -5 10 -10 10 -6 0 -9
3 -8 8 3 7 -61 124 -72 132 -4 3 -10 15 -14 28 -4 12 -12 22 -17 22 -5 0 -9 7
-9 15 0 9 -7 18 -15 21 -8 4 -15 12 -15 18 0 7 -21 36 -47 66 -27 29 -48 57
-48 60 0 10 -188 200 -198 200 -4 0 -20 12 -35 28 -15 15 -42 38 -60 52 -18
14 -47 37 -64 52 -17 15 -44 33 -60 40 -15 7 -28 16 -28 20 0 5 -6 8 -14 8 -8
0 -27 11 -43 24 -16 14 -41 28 -56 31 -15 4 -27 11 -27 15 0 5 -27 19 -59 31
-33 13 -57 27 -55 31 3 4 -2 8 -10 8 -9 0 -44 14 -78 30 -34 17 -72 30 -85 30
-13 0 -23 4 -23 10 0 5 -12 12 -27 16 -16 3 -44 12 -63 19 -19 7 -63 19 -97
26 -35 7 -63 17 -63 21 0 4 -25 8 -56 8 -31 0 -79 7 -107 14 -48 14 -421 41
-436 32 -3 -2 -67 -7 -141 -10 -81 -4 -154 -12 -183 -22 -26 -9 -58 -13 -70
-10 -11 3 -26 1 -32 -4 -6 -5 -56 -18 -110 -30 -55 -11 -114 -28 -132 -36 -17
-9 -37 -14 -45 -12 -7 3 -24 -3 -37 -13 -13 -11 -30 -19 -38 -19 -8 0 -38 -10
-66 -23 -29 -13 -71 -29 -94 -37 -24 -7 -43 -16 -43 -20 0 -4 -18 -13 -40 -20
-22 -7 -40 -17 -40 -22 0 -4 -12 -8 -26 -8 -14 0 -23 -4 -20 -9 3 -5 -11 -16
-32 -24 -20 -8 -74 -40 -120 -71 -45 -31 -87 -56 -92 -56 -6 0 -10 -4 -10 -10
0 -5 -17 -18 -38 -29 -21 -11 -50 -31 -63 -45 -13 -14 -30 -26 -36 -26 -7 0
-30 -16 -50 -36 -21 -19 -50 -42 -65 -50 -16 -8 -28 -18 -28 -22 0 -11 -85
-102 -96 -102 -5 0 -20 -14 -34 -32 -14 -17 -44 -49 -67 -71 -24 -22 -43 -46
-43 -53 0 -7 -9 -18 -20 -24 -11 -6 -27 -25 -36 -43 -9 -18 -29 -44 -43 -58
-14 -14 -37 -47 -51 -72 -13 -26 -28 -47 -32 -47 -5 0 -8 -6 -8 -14 0 -8 -6
-16 -13 -19 -7 -2 -22 -23 -32 -46 -11 -22 -23 -41 -27 -41 -5 0 -8 -7 -8 -15
0 -9 -6 -18 -14 -21 -7 -3 -19 -23 -27 -46 -7 -22 -19 -42 -26 -45 -7 -3 -13
-10 -13 -15 0 -17 -73 -163 -86 -170 -6 -5 -18 -32 -24 -60 -7 -29 -21 -64
-31 -77 -11 -13 -19 -31 -19 -40 0 -21 -43 -144 -53 -152 -4 -3 -9 -23 -11
-45 -2 -21 -11 -59 -19 -84 -33 -95 -52 -189 -77 -375 -5 -38 -11 -81 -14 -95
-13 -77 -17 -173 -19 -425 -1 -245 1 -284 16 -312 10 -19 17 -55 17 -87 0 -30
4 -66 10 -81 5 -14 14 -56 20 -93 11 -68 46 -221 60 -257 9 -24 24 -74 40
-137 7 -27 17 -48 21 -48 5 0 9 -10 9 -23 0 -13 6 -29 13 -36 10 -11 10 -14 0
-18 -17 -6 -16 -16 5 -39 9 -10 26 -39 36 -64 10 -25 38 -86 62 -137 24 -50
44 -96 44 -102 0 -6 4 -11 9 -11 5 0 17 -20 26 -45 10 -25 24 -50 31 -56 8 -6
14 -17 14 -24 0 -8 21 -46 48 -87 26 -40 54 -85 61 -100 8 -15 22 -37 33 -47
10 -11 18 -25 18 -31 0 -5 4 -10 9 -10 9 0 22 -28 27 -58 3 -18 36 -54 42 -47
3 3 17 -12 31 -33 28 -41 98 -129 136 -170 14 -15 32 -41 40 -58 8 -17 26 -36
39 -42 14 -6 32 -27 40 -47 9 -22 22 -35 33 -35 20 0 89 -69 70 -71 -7 -1 -1
-4 13 -8 15 -4 31 -19 39 -38 7 -17 27 -37 45 -44 17 -8 36 -25 43 -39 7 -14
21 -26 32 -26 11 -1 40 -21 64 -45 24 -24 57 -51 73 -59 35 -18 94 -77 85 -86
-3 -3 1 -5 9 -4 28 4 40 0 40 -14 0 -18 38 -46 54 -40 6 2 33 -14 60 -36 27
-22 59 -43 72 -46 13 -3 24 -10 24 -15 0 -5 5 -9 12 -9 6 0 26 -12 45 -26 18
-14 54 -34 78 -45 28 -12 43 -24 39 -31 -5 -7 -1 -9 9 -5 11 4 17 1 17 -8 0
-8 9 -15 21 -15 11 0 18 -4 15 -9 -4 -5 2 -7 13 -4 10 3 22 0 25 -6 4 -6 16
-11 27 -11 16 0 19 -5 14 -20 -5 -16 -2 -20 17 -20 13 -1 34 -7 48 -15 16 -9
40 -12 67 -8 30 4 47 1 65 -12 19 -14 19 -16 3 -10 -11 4 -31 9 -45 11 -14 2
1 -5 34 -16 32 -11 77 -21 100 -22 22 -2 43 -6 46 -9 5 -6 130 -27 305 -51
124 -18 725 -17 865 0 470 59 865 174 1265 366 1047 504 1836 1474 2101 2585
47 195 46 191 34 191 -8 0 -8 6 0 20 8 15 8 18 -3 14 -7 -2 -22 -40 -32 -82
-21 -93 -34 -122 -51 -122 -8 0 -24 -36 -40 -87 -31 -104 -35 -112 -44 -89 -4
13 -12 1 -29 -41 -54 -135 -74 -174 -87 -169 -7 3 -18 -10 -27 -32 -42 -102
-49 -115 -56 -103 -5 7 -24 -18 -52 -69 -35 -65 -101 -164 -73 -111 17 33 -20
2 -41 -34 -12 -22 -37 -62 -55 -90 -28 -43 -31 -46 -26 -20 5 21 -12 0 -55
-64 -38 -58 -64 -89 -68 -82 -5 8 -23 -9 -51 -46 -59 -80 -90 -112 -104 -108
-6 2 -33 -23 -59 -56 -31 -38 -54 -58 -63 -55 -8 3 -14 -1 -14 -9 0 -8 -4 -15
-10 -15 -5 0 -40 -30 -76 -67 -41 -43 -60 -57 -49 -38 13 22 1 14 -46 -30 -35
-33 -66 -62 -69 -65 -3 -3 -16 -14 -30 -25 -19 -15 -22 -16 -11 -2 25 32 0 17
-71 -43 -39 -33 -75 -57 -79 -54 -5 3 -9 -3 -10 -13 0 -10 -3 -13 -6 -6 -3 9
-26 -3 -70 -34 -36 -26 -74 -47 -83 -48 -10 -1 -44 -18 -75 -38 -30 -21 -61
-37 -68 -35 -7 1 -23 -5 -37 -13 -70 -43 -132 -79 -136 -79 -3 0 -2 5 2 11 3
6 -35 -10 -85 -36 -51 -26 -95 -44 -98 -41 -4 3 0 6 7 6 7 0 11 2 8 5 -3 3
-34 -7 -69 -23 -84 -38 -101 -44 -94 -32 6 9 -34 -4 -131 -45 -21 -9 -44 -13
-52 -10 -8 3 -48 -6 -89 -20 -40 -14 -78 -23 -83 -20 -6 4 -35 -1 -65 -10 -30
-8 -66 -13 -79 -9 -13 3 -59 -4 -101 -16 -54 -15 -80 -18 -84 -11 -5 8 -30 6
-85 -4 -91 -18 -96 -18 -76 -5 13 9 13 10 0 10 -8 0 -44 -5 -79 -11 -35 -5
-71 -7 -80 -3 -9 4 -56 6 -106 5 -51 -1 -85 2 -78 7 7 4 -31 7 -85 5 -65 -2
-90 0 -77 6 14 7 -6 10 -68 10 -51 1 -86 5 -82 10 5 8 -34 15 -130 23 -16 2
-29 8 -28 14 1 7 -27 14 -77 18 -44 4 -83 12 -86 18 -5 7 -2 8 6 3 9 -5 11 -4
6 3 -4 7 -21 12 -37 12 -43 0 -123 22 -110 30 7 3 -25 14 -68 24 -44 9 -84 22
-88 29 -5 7 -41 23 -81 35 -40 13 -70 27 -68 31 3 4 -26 17 -64 30 -38 12 -69
27 -67 32 1 6 -22 20 -51 31 -29 11 -56 26 -59 33 -2 8 -12 11 -20 8 -10 -4
-14 -2 -10 4 4 7 -22 24 -63 44 -39 18 -66 35 -60 39 5 3 -18 21 -50 39 -33
18 -60 36 -60 40 0 5 -28 27 -62 50 -35 22 -59 41 -53 41 5 0 -19 21 -54 46
-34 25 -60 48 -57 51 3 3 -11 19 -32 35 -20 17 -36 34 -35 39 2 5 0 8 -5 7
-16 -5 -51 23 -46 37 4 8 2 15 -2 15 -14 0 -164 160 -164 175 0 4 -18 27 -40
52 -22 25 -40 52 -40 60 0 8 -4 11 -10 8 -5 -3 -10 -1 -10 6 0 6 -16 33 -35
59 -19 26 -32 50 -28 54 3 3 1 6 -5 6 -7 0 -12 5 -12 12 0 6 -11 26 -26 45
-14 18 -22 38 -18 45 4 7 3 8 -4 4 -7 -4 -12 -2 -12 5 0 7 -14 34 -31 60 -17
27 -28 53 -25 58 4 5 2 12 -3 15 -13 8 -53 87 -47 93 3 3 -9 30 -25 60 -17 30
-33 67 -35 81 -3 15 -12 41 -20 58 -8 17 -17 45 -19 60 -2 16 -11 45 -19 65
-8 20 -12 39 -9 43 4 3 1 6 -6 6 -7 0 -9 4 -6 10 3 5 -1 34 -10 65 -9 30 -14
59 -11 64 4 5 1 22 -5 38 -6 15 -12 46 -14 68 -2 22 -9 85 -15 140 -6 55 -9
107 -7 117 3 10 2 16 -2 14 -14 -9 10 387 28 469 5 22 17 76 26 120 10 44 24
98 31 120 8 23 14 47 14 54 0 7 6 27 14 44 8 18 20 50 26 72 7 22 16 45 20 50
4 6 13 28 20 50 7 22 21 51 31 64 11 13 19 32 19 42 0 9 6 24 13 31 7 7 22 34
32 60 11 25 22 45 26 42 3 -2 14 15 24 37 10 22 26 48 34 58 9 11 41 54 71 97
113 160 317 352 513 482 104 70 319 179 387 197 8 2 48 16 89 30 41 14 90 28
108 30 18 2 37 7 42 10 5 3 29 8 52 11 24 3 55 8 69 10 200 27 411 23 585 -12
72 -14 139 -29 150 -34 11 -5 58 -22 105 -38 431 -153 777 -498 918 -917 49
-143 64 -236 67 -395 4 -170 -10 -274 -55 -415 -39 -120 -74 -192 -148 -305
-211 -319 -607 -514 -961 -472 -264 31 -482 155 -627 359 -98 136 -138 265
-137 438 0 101 4 132 27 200 33 102 71 168 141 243 262 283 699 245 852 -74
132 -277 -83 -584 -360 -513 -171 43 -244 254 -128 370 83 83 205 69 253 -29
18 -38 19 -49 9 -83 -6 -21 -21 -45 -34 -54 -41 -29 -47 -21 -47 69 0 67 -3
85 -16 90 -25 9 -43 7 -78 -9 -93 -44 -86 -181 12 -238 41 -24 125 -26 167 -4
136 70 161 255 52 374 -137 148 -373 131 -506 -37 -160 -202 -98 -511 134
-665 305 -202 739 -59 910 299 48 101 65 175 72 301 7 151 -17 261 -92 410
-156 313 -464 506 -831 522 -336 15 -634 -104 -880 -351 -240 -241 -369 -540
-389 -901 -12 -219 39 -484 131 -685 19 -41 35 -77 36 -80 0 -3 12 -22 24 -42
13 -21 24 -39 24 -41 0 -20 177 -257 191 -257 5 0 9 -6 9 -14 0 -8 4 -16 10
-18 5 -1 40 -32 77 -68 131 -127 256 -218 378 -278 28 -13 70 -35 95 -47 25
-13 59 -28 75 -34 17 -5 55 -19 85 -31 30 -12 75 -26 100 -32 25 -6 49 -14 54
-19 6 -5 27 -9 48 -9 21 0 38 -4 38 -10 0 -5 17 -10 38 -10 20 0 72 -7 115
-15 93 -18 323 -21 452 -5 126 14 155 19 174 24 9 3 32 8 51 10 36 5 163 40
178 50 5 3 19 7 33 10 65 13 299 115 369 160 19 13 69 43 110 67 41 24 83 52
92 62 10 9 18 15 18 12 0 -15 248 200 311 270 11 11 44 47 74 79 30 33 55 63
55 66 0 4 10 18 23 32 57 65 60 69 103 148 8 14 14 21 14 15 0 -5 7 1 16 13 8
12 12 27 8 34 -4 6 -3 8 3 5 6 -4 16 7 23 24 7 17 18 36 24 42 16 17 107 200
106 214 0 6 6 18 13 25 6 7 21 38 31 68 10 30 22 60 27 65 4 6 11 28 15 50 4
22 13 49 20 60 7 11 16 43 20 70 4 28 11 53 16 56 5 3 11 30 15 60 3 30 9 56
13 59 21 17 58 411 55 595 -2 151 -18 316 -35 359 -7 19 -7 25 0 21 12 -8 7
21 -20 103 -10 29 -14 55 -9 57 4 3 2 20 -6 38 -8 19 -16 52 -19 74 -2 23 -14
59 -25 82 -12 22 -18 47 -14 57 4 12 3 15 -5 10 -8 -4 -10 -2 -6 8 3 8 -4 32
-15 55 -12 22 -21 46 -21 53 0 8 -15 46 -34 85 -19 39 -32 74 -29 76 2 3 -12
32 -33 64 -21 32 -39 69 -41 82 -1 13 -22 50 -47 81 -26 32 -46 62 -46 67 0 4
5 1 10 -7 5 -8 10 -10 10 -5 0 6 -18 33 -39 62 -22 28 -37 54 -34 57 4 3 1 6
-5 6 -7 0 -12 5 -12 11 0 7 -15 30 -34 53 -18 23 -40 55 -49 71 -8 17 -25 39
-37 50 -12 11 -36 40 -53 65 -17 25 -48 60 -69 79 -21 19 -35 37 -33 42 3 4
-19 29 -49 56 -30 26 -56 53 -58 58 -4 12 -49 52 -106 93 -23 16 -37 32 -31
34 7 2 -5 15 -26 29 -21 13 -48 31 -61 39 -13 8 -25 21 -27 30 -2 8 -34 33
-71 54 -37 22 -71 48 -77 58 -5 10 -37 32 -70 48 -33 17 -62 37 -65 44 -3 7
-28 24 -57 36 -29 13 -63 34 -77 46 -14 12 -63 38 -110 58 -47 19 -78 35 -70
36 8 1 -12 11 -46 24 -33 12 -76 32 -96 44 -19 12 -58 27 -87 33 -29 6 -60 19
-69 29 -9 12 -42 24 -84 31 -38 7 -78 21 -90 31 -12 10 -30 18 -41 18 -11 0
-49 5 -85 12 -44 8 -58 14 -46 19 12 4 -2 9 -41 13 -112 13 -138 18 -126 26
13 8 -68 20 -136 20 -23 0 -45 5 -48 10 -3 6 -44 10 -89 10 -60 0 -87 4 -95
14 -10 12 -31 13 -102 9 -60 -4 -89 -2 -89 5 0 5 -12 9 -27 7 -61 -7 -143 -8
-150 -2 -8 9 -42 7 -108 -4z"/>
</g>
</svg>
