<?xml version="1.0" standalone="no"?>
<!DOCTYPE svg PUBLIC "-//W3C//DTD SVG 20010904//EN"
 "http://www.w3.org/TR/2001/REC-SVG-20010904/DTD/svg10.dtd">
<svg version="1.0" xmlns="http://www.w3.org/2000/svg"
 width="370.000000pt" height="362.000000pt" viewBox="0 0 370.000000 362.000000"
 preserveAspectRatio="xMidYMid meet">
<metadata>
Created by potrace 1.16, written by Peter Selinger 2001-2019
</metadata>
<g transform="translate(0.000000,362.000000) scale(0.100000,-0.100000)"
fill="#000000" stroke="none">
<path d="M2652 3610 c-84 -11 -131 -30 -247 -100 -98 -59 -126 -66 -183 -47
l-42 15 0 -27 c0 -44 36 -90 88 -113 65 -29 202 -36 306 -14 43 9 104 16 136
16 68 0 213 -40 285 -78 105 -57 199 -184 240 -326 24 -82 17 -224 -13 -283
-50 -96 -128 -152 -196 -139 -65 12 -130 70 -331 295 -279 314 -331 346 -555
346 -135 0 -201 -20 -290 -87 -30 -23 -69 -52 -87 -65 l-32 -24 -43 39 c-100
90 -182 130 -278 137 -139 9 -257 -42 -375 -160 -44 -45 -107 -119 -140 -165
-151 -210 -208 -270 -282 -295 -51 -17 -90 -4 -135 45 -55 62 -72 123 -72 260
0 108 2 120 33 194 63 146 194 257 343 288 47 10 76 9 175 -7 138 -21 261 -17
311 9 37 19 72 69 72 103 0 20 -3 21 -30 11 -43 -14 -73 -4 -171 58 -47 29
-105 60 -128 69 -74 26 -199 36 -307 25 -184 -19 -322 -80 -446 -198 -188
-178 -253 -347 -252 -652 0 -173 12 -238 65 -342 116 -230 255 -358 437 -401
l53 -12 -6 -35 c-9 -50 -32 -82 -58 -80 -53 5 -65 -14 -41 -65 22 -47 59 -59
178 -57 81 2 110 7 151 26 28 13 67 26 87 30 20 4 74 31 119 61 46 30 87 55
91 55 4 0 3 -11 -2 -25 -5 -14 -14 -53 -19 -86 -16 -95 -44 -113 -134 -88 -32
9 -43 7 -71 -10 -43 -27 -57 -60 -63 -152 -8 -107 4 -136 90 -214 39 -36 75
-65 79 -65 20 0 4 -31 -37 -69 -38 -35 -45 -48 -45 -80 0 -43 32 -80 91 -105
l37 -15 0 -73 c0 -119 25 -158 100 -158 141 -1 196 -59 153 -160 -41 -94 -23
-147 69 -210 39 -27 60 -48 60 -60 0 -11 -22 -43 -49 -71 -47 -49 -51 -51 -95
-47 -25 2 -46 0 -46 -3 0 -4 9 -18 21 -33 26 -34 6 -35 -42 -3 -58 39 -63 42
-54 26 24 -41 80 -100 121 -128 l47 -31 -59 -1 -59 -1 35 -15 c24 -10 57 -14
106 -11 62 3 78 8 128 41 31 20 56 32 56 26 0 -23 -22 -50 -58 -68 l-37 -20
30 -1 c47 0 147 28 178 51 15 11 27 17 27 14 0 -17 -23 -46 -48 -60 l-27 -16
42 5 c78 8 198 117 205 185 l3 32 23 -21 c25 -24 29 -67 7 -96 -24 -31 -17
-39 11 -13 59 54 62 115 9 184 -14 19 -25 38 -25 42 0 5 14 22 31 39 17 16 39
45 49 64 16 32 70 91 70 78 0 -3 -12 -31 -26 -62 -23 -51 -25 -61 -13 -87 8
-20 25 -36 48 -46 62 -26 66 -29 69 -52 2 -11 -6 -34 -18 -51 -28 -39 -9 -39
24 1 29 34 41 71 32 94 -3 8 -20 24 -38 34 -81 48 -79 65 20 134 138 97 160
144 100 213 -39 44 -30 67 28 74 34 4 40 9 44 35 4 25 11 31 49 40 33 8 50 19
63 40 24 41 23 93 -3 121 -25 27 -18 44 20 44 33 0 51 16 51 46 0 32 26 54 65
54 37 0 38 2 51 118 5 54 10 65 30 74 29 13 31 22 38 153 3 55 8 110 12 122
l6 22 54 -29 c30 -16 78 -34 108 -41 l53 -12 7 -75 c15 -176 3 -315 -40 -467
-50 -175 -124 -293 -299 -474 -122 -126 -121 -132 3 -28 154 130 269 284 331
447 48 123 61 210 61 400 0 195 4 201 70 129 38 -42 38 -42 94 -35 40 4 67 2
92 -9 72 -30 100 -12 89 57 -6 36 -18 53 -70 103 -53 51 -64 67 -70 105 -4 27
-19 61 -38 84 -25 32 -32 52 -35 97 -4 57 -4 58 24 64 187 42 257 77 360 179
123 124 207 271 239 421 13 56 18 130 19 245 1 194 -15 265 -92 414 -36 72
-64 109 -132 176 -74 75 -100 93 -200 143 -63 32 -151 67 -195 78 -93 24 -308
33 -423 19z m463 -63 c241 -79 434 -267 519 -505 29 -83 30 -94 31 -247 0
-174 -15 -267 -62 -380 -66 -158 -207 -318 -333 -378 -60 -28 -218 -73 -226
-64 -5 5 -42 172 -39 175 2 2 17 -17 35 -42 17 -25 33 -46 35 -46 2 0 1 26 -1
58 l-5 57 35 -39 c20 -22 38 -37 40 -35 2 2 10 27 18 54 l14 50 26 -43 c28
-48 32 -47 42 13 11 65 17 68 61 33 l38 -32 -7 28 c-4 16 -9 41 -12 56 l-6 27
53 -5 52 -5 -21 31 c-12 16 -22 33 -22 36 0 3 20 6 45 6 25 0 45 2 45 5 0 3
-11 23 -25 45 -14 22 -25 42 -25 45 0 2 18 8 40 11 22 4 40 9 40 11 0 3 -14
23 -32 45 -25 32 -28 42 -17 49 8 5 19 9 26 9 6 0 23 4 37 10 l26 9 -43 41
-42 41 43 38 44 38 -31 22 c-37 27 -38 33 -6 75 14 18 25 36 25 40 0 4 -14 25
-31 46 -31 38 -31 39 -19 91 13 52 13 52 -18 78 -25 22 -31 36 -37 84 -6 53
-9 59 -39 74 -20 9 -44 34 -61 64 -27 46 -31 48 -82 55 -50 6 -55 9 -78 49
-25 42 -26 42 -71 37 -37 -4 -58 1 -105 23 -54 26 -62 28 -107 17 -41 -9 -59
-8 -108 7 -41 12 -68 15 -89 9 -16 -4 -61 -13 -99 -19 -56 -9 -78 -18 -118
-50 -28 -21 -47 -39 -43 -39 4 0 40 12 80 26 l72 26 41 -21 41 -21 36 21 c34
20 36 21 62 3 20 -12 49 -18 106 -18 76 -2 79 -3 103 -34 23 -29 30 -32 83
-32 l57 0 20 -48 c18 -43 25 -49 70 -63 l49 -15 3 -52 c3 -46 7 -54 42 -82
l38 -30 -13 -49 c-12 -47 -11 -50 16 -95 35 -55 35 -56 9 -107 l-21 -40 23
-40 c19 -35 20 -42 8 -49 -47 -27 -49 -32 -41 -98 4 -35 5 -65 2 -67 -4 -2
-23 -6 -43 -10 -31 -6 -38 -12 -43 -39 -14 -70 -13 -69 -64 -63 -45 5 -49 4
-75 -30 l-28 -35 -42 40 c-22 22 -68 54 -101 71 -91 47 -171 118 -281 247
-133 157 -208 223 -307 273 -95 48 -178 66 -262 56 -84 -9 -135 -34 -216 -107
-57 -50 -72 -59 -80 -48 -6 10 -7 -4 -3 -40 3 -30 1 -82 -5 -115 -14 -76 -49
-111 -148 -149 -84 -32 -118 -63 -109 -100 8 -34 -11 -34 -26 0 -11 24 -9 28
20 53 48 39 44 70 -19 123 -28 23 -58 56 -66 72 -35 67 16 142 143 209 81 42
117 49 63 13 -55 -37 -72 -71 -73 -142 -1 -53 -4 -65 -26 -82 -14 -11 -22 -23
-19 -26 3 -3 22 10 43 29 33 30 37 38 31 64 -15 68 51 141 127 141 39 0 49 5
88 46 59 61 133 108 211 135 55 18 80 20 169 16 195 -8 238 -38 520 -362 87
-100 175 -196 196 -214 133 -118 277 -85 366 82 21 38 23 56 23 177 l0 135
-48 97 c-83 170 -191 262 -357 307 -122 32 -173 34 -305 10 -171 -30 -268 -18
-327 39 -27 25 -39 50 -18 37 6 -4 31 -7 56 -7 37 0 66 12 156 62 146 82 186
90 418 86 168 -2 192 -5 265 -29z m-2143 -4 c32 -8 106 -44 165 -79 65 -39
118 -64 136 -64 36 0 32 -17 -13 -47 -28 -20 -46 -23 -129 -23 -53 0 -136 7
-186 16 -144 25 -223 9 -348 -74 -152 -99 -222 -254 -215 -472 3 -100 7 -122
31 -172 47 -97 117 -140 202 -124 52 10 152 109 268 266 113 153 209 256 276
300 83 53 231 76 320 49 40 -12 142 -78 148 -96 2 -6 -9 -14 -26 -18 -38 -8
-137 -68 -179 -108 -44 -42 -62 -78 -62 -124 0 -33 8 -45 75 -110 41 -39 75
-76 75 -82 0 -5 -13 -21 -30 -34 -56 -48 -30 -119 44 -119 52 0 64 12 27 28
-60 25 -22 63 110 109 58 20 107 67 115 111 5 30 10 34 36 34 16 0 60 -13 96
-29 90 -38 132 -45 212 -30 62 11 74 10 171 -16 57 -15 134 -31 170 -36 104
-12 249 -95 328 -186 94 -109 221 -423 221 -546 0 -54 4 -70 24 -94 33 -40 44
-64 57 -123 9 -42 17 -55 47 -74 49 -31 78 -65 86 -99 4 -16 3 -27 -1 -25 -61
31 -91 39 -121 34 -39 -6 -62 4 -110 45 -17 16 -58 35 -90 44 -245 66 -350
136 -463 309 -47 72 -76 145 -99 256 -18 80 -19 82 -19 36 -1 -27 6 -94 15
-150 19 -121 13 -190 -23 -266 -38 -79 -39 -79 -4 -33 18 23 42 68 55 99 l23
57 41 -60 c23 -34 67 -83 98 -111 l57 -51 -8 -78 c-4 -43 -7 -108 -6 -145 1
-63 0 -68 -29 -88 -27 -20 -30 -26 -30 -80 0 -77 -6 -90 -41 -90 -35 0 -69
-31 -69 -63 0 -32 -18 -47 -57 -47 -26 0 -36 -5 -42 -22 -10 -26 -5 -42 22
-80 28 -38 16 -73 -33 -98 -21 -11 -53 -20 -71 -20 -23 0 -41 -10 -70 -38 -51
-52 -57 -81 -30 -148 13 -31 20 -62 16 -73 -5 -18 -54 -61 -68 -61 -2 0 -4 26
-3 57 1 54 0 58 -34 79 -19 12 -48 35 -64 50 l-29 29 6 -56 c7 -73 0 -83 -55
-77 l-44 5 17 -33 c33 -66 -10 -143 -106 -188 -31 -15 -33 -19 -37 -81 -3 -55
-8 -69 -33 -95 -37 -38 -50 -38 -30 0 33 64 10 110 -83 160 -96 52 -131 91
-133 150 l-1 35 -11 -33 c-8 -26 -7 -45 5 -83 9 -27 13 -49 8 -49 -4 0 -22 16
-39 35 -19 22 -31 30 -31 20 0 -23 -15 -18 -54 19 -44 41 -47 80 -10 143 16
28 24 55 22 75 -3 29 0 33 33 41 30 7 45 4 78 -12 48 -25 78 -27 101 -6 10 9
37 19 61 23 40 7 42 9 23 20 -43 23 -250 54 -403 59 l-153 6 -14 33 c-16 39
-18 92 -5 127 9 23 16 25 103 32 75 5 112 3 192 -14 284 -60 380 -6 536 298
42 82 59 106 84 117 28 12 28 13 8 14 -38 0 -61 -18 -93 -75 -17 -30 -34 -55
-39 -55 -4 0 -11 16 -14 35 -4 19 -18 47 -31 62 l-24 28 19 -40 c11 -22 23
-60 26 -85 6 -42 3 -50 -46 -124 -68 -100 -110 -131 -203 -147 -75 -13 -145
-5 -327 36 -45 10 -93 13 -155 9 -112 -7 -158 11 -163 63 -3 27 2 34 27 48 17
8 38 27 47 41 16 24 20 24 93 19 74 -5 75 -5 35 8 -108 36 -247 134 -279 198
-15 28 -21 162 -9 194 4 8 19 22 35 30 23 12 36 13 72 3 24 -6 55 -8 70 -4 46
11 99 76 154 187 29 58 88 156 133 217 67 93 82 121 91 169 13 68 5 141 -21
200 -20 46 -48 66 -88 61 -36 -4 -39 -31 -8 -69 33 -39 33 -49 -2 -49 -18 0
-36 -9 -48 -22 -10 -13 -12 -17 -4 -10 8 6 31 12 52 12 31 0 38 -4 38 -20 0
-11 9 -29 20 -40 11 -11 20 -33 20 -50 l0 -29 -41 14 c-23 8 -61 15 -85 15
-59 0 -84 32 -84 109 0 62 22 109 64 136 25 17 39 49 51 117 3 21 10 40 14 42
5 3 34 7 65 8 59 2 66 7 40 29 -70 58 -21 178 107 260 l52 33 -44 19 c-28 13
-68 20 -110 20 -58 1 -77 -4 -140 -36 -112 -55 -177 -113 -279 -246 -119 -157
-202 -241 -265 -271 -27 -12 -67 -39 -88 -59 l-38 -36 -26 29 c-22 26 -32 29
-68 27 l-43 -2 -6 45 c-7 42 -10 46 -46 56 l-38 10 6 62 c5 58 4 63 -22 83
l-27 22 21 36 21 36 -22 42 -21 43 27 50 c25 47 27 55 17 99 -10 47 -9 48 24
73 29 22 33 32 36 76 3 50 4 51 47 68 38 14 47 24 60 59 15 41 16 41 66 41 45
0 52 4 72 32 21 30 26 32 91 34 46 1 78 8 95 19 25 16 28 16 54 -3 27 -20 28
-20 65 -1 l38 19 62 -25 c34 -14 63 -23 65 -21 3 2 -14 19 -37 37 -32 26 -60
37 -128 51 -80 16 -91 16 -135 2 -40 -13 -57 -14 -94 -5 -41 11 -49 10 -90
-14 -31 -17 -61 -25 -92 -25 -45 0 -49 -2 -70 -40 -18 -33 -28 -40 -52 -40
-44 0 -66 -15 -89 -60 -11 -22 -33 -46 -49 -55 -26 -13 -30 -22 -36 -75 -6
-48 -12 -63 -33 -79 -25 -18 -26 -20 -14 -71 12 -51 12 -53 -19 -91 l-31 -39
26 -35 c33 -42 32 -48 -2 -75 l-27 -22 39 -34 40 -34 -39 -40 c-21 -22 -37
-41 -34 -43 2 -2 23 -9 47 -16 l43 -12 -31 -42 -31 -42 33 -9 c18 -5 34 -10
36 -12 2 -1 -6 -20 -17 -43 -12 -22 -21 -43 -21 -46 0 -3 18 -5 40 -5 l39 0
-20 -35 -21 -35 47 7 47 6 -7 -34 c-3 -19 -9 -43 -12 -54 -4 -15 3 -12 31 14
20 19 36 33 37 30 1 -2 6 -31 13 -64 l12 -60 24 45 24 45 16 -55 16 -55 25 37
c13 21 26 38 29 38 4 0 4 -15 2 -34 -8 -67 1 -75 32 -28 15 24 29 42 31 40 7
-6 -26 -135 -38 -152 -11 -14 -18 -14 -76 -1 -35 9 -91 30 -123 47 -111 59
-249 239 -304 397 -51 148 -51 421 0 574 39 116 89 192 200 303 82 83 115 108
176 137 156 73 366 93 522 50z m227 -922 c26 -26 18 -55 -30 -108 -62 -68 -78
-189 -31 -235 l20 -20 -30 -27 c-24 -21 -29 -33 -26 -60 l3 -33 30 28 30 28 6
-43 c6 -47 20 -61 62 -61 18 0 27 -4 25 -12 -7 -21 -44 -20 -87 1 -22 12 -48
21 -57 21 -16 0 -16 -1 0 -19 16 -18 17 -24 4 -62 -12 -37 -25 -49 -113 -106
-55 -35 -124 -71 -155 -80 -30 -8 -72 -24 -92 -34 -29 -15 -59 -19 -132 -19
-85 0 -98 2 -122 24 l-28 24 32 7 c41 9 68 44 77 100 4 29 17 58 35 78 69 79
130 183 154 261 17 54 41 103 72 146 94 132 156 180 259 206 68 17 72 17 94
-5z"/>
<path d="M2074 2547 c11 -102 62 -177 140 -207 26 -10 27 -9 12 12 -21 30 -22
128 -2 128 18 0 66 -56 66 -78 0 -20 91 -102 140 -126 l35 -17 -28 22 c-16 12
-35 39 -44 60 -8 21 -23 41 -33 44 -10 3 -20 18 -23 33 -3 15 -19 42 -36 60
-24 26 -38 32 -69 32 -26 0 -42 5 -46 15 -3 8 -17 15 -32 15 -16 0 -37 12 -57
33 l-30 32 7 -58z"/>
<path d="M1842 2365 c-12 -15 -24 -43 -27 -64 -5 -30 -15 -58 -33 -92 -1 -4
18 -4 43 -2 42 5 61 -6 35 -22 -5 -3 -10 -21 -10 -40 0 -86 135 -86 144 0 3
26 7 30 32 27 16 -2 35 -9 43 -17 12 -12 12 -17 -2 -38 -26 -40 -94 -67 -169
-67 -57 0 -69 3 -92 26 -26 27 -36 22 -13 -7 47 -62 215 -48 292 25 29 28 35
40 35 74 0 22 -5 44 -12 48 -21 13 -133 33 -188 34 -76 0 -83 7 -71 60 5 24
15 47 23 52 19 13 116 -1 167 -23 62 -27 63 -16 1 16 -31 16 -76 28 -114 32
-59 5 -64 4 -84 -22z"/>
<path d="M1492 1775 c-50 -22 -201 -123 -255 -171 -26 -24 -58 -45 -70 -47
-19 -4 -19 -4 4 -6 16 0 46 13 75 34 27 19 69 47 94 61 25 15 68 42 97 61 62
41 121 57 183 48 77 -12 130 -52 130 -99 0 -18 -3 -17 -28 7 -19 19 -39 27
-63 27 -36 0 -79 -23 -79 -43 0 -8 3 -8 12 1 18 18 73 15 91 -5 8 -10 17 -31
19 -48 2 -23 7 -29 21 -27 16 3 18 -1 12 -30 -7 -29 -6 -31 8 -20 45 38 59
128 30 189 -33 70 -189 108 -281 68z"/>
<path d="M1506 1590 c-63 -19 -122 -103 -132 -187 l-5 -48 14 36 c23 60 56
107 91 128 38 24 60 27 53 9 -7 -22 13 -48 36 -48 36 0 67 28 67 60 0 50 -52
71 -124 50z"/>
</g>
</svg>
